<?xml version="1.0" encoding="iso-8859-1"?>
<!-- Generator: Adobe Illustrator 19.0.0, SVG Export Plug-In . SVG Version: 6.00 Build 0)  -->
<svg version="1.1" id="Layer_1" xmlns="http://www.w3.org/2000/svg" xmlns:xlink="http://www.w3.org/1999/xlink" x="0px" y="0px"
	 viewBox="0 0 512 512" style="enable-background:new 0 0 512 512;" xml:space="preserve">
<circle style="fill:#273B7A;" cx="256" cy="256" r="256"/>
<path style="fill:#121149;" d="M509.154,294.24L347.793,134.042l-3.181-2.212l-20.342-20.342l-46.797,54.007l-95.546,56.258
	l120.658,120.658H195.52l-60.747,84.256l82.406,82.406C229.84,511,242.802,512,256,512C384.388,512,490.694,417.485,509.154,294.24z
	"/>
<rect x="253.259" y="215.143" style="fill:#D35933;" width="22.725" height="124.983"/>
<rect x="263.465" y="215.143" style="fill:#B54324;" width="12.51" height="124.983"/>
<path style="fill:#82CC71;" d="M330.411,122.318c-3.563-11.033-12.669-18.897-23.373-18.897c-3.11,0-6.077,0.693-8.823,1.905
	c-8.875-9.414-20.656-15.16-33.595-15.16c-13.157,0-25.105,5.951-34.028,15.646c-3.038-1.533-6.384-2.389-9.904-2.389
	c-10.931,0-20.201,8.201-23.595,19.606c-18.961,8.287-32.459,29.613-32.459,54.625c0,32.213,22.383,58.325,49.993,58.325
	c2.189,0,4.343-0.183,6.458-0.5c8.582,17.705,24.857,4.667,43.536,4.667s34.952,13.038,43.535-4.667
	c2.115,0.319,4.268,0.5,6.458,0.5c27.61,0,49.993-26.114,49.993-58.325C364.606,151.885,350.277,130.034,330.411,122.318z"/>
<path style="fill:#6CAF5F;" d="M330.411,122.318c-1.336-4.137-3.451-7.83-6.139-10.828c-4.479-4.998-10.543-8.07-17.234-8.07
	c-3.11,0-6.077,0.693-8.823,1.905c-8.875-9.414-20.656-15.16-33.595-15.16c-0.384,0-0.765,0.022-1.148,0.033v149.971
	c0.383-0.01,0.764-0.024,1.148-0.024c18.679,0,34.952,13.038,43.535-4.667c2.115,0.319,4.268,0.5,6.458,0.5
	c27.61,0,49.993-26.114,49.993-58.325C364.606,151.885,350.277,130.034,330.411,122.318z"/>
<path style="fill:#FF7F4F;" d="M276.63,303.125l12.986-12.986h-49.993l12.986,12.986c-20.118,8.844-34.954,38.198-34.954,59.983
	c0,25.938,21.026,34.592,46.963,34.592s46.963-8.654,46.963-34.592C311.582,341.323,296.748,311.968,276.63,303.125z"/>
<path style="fill:#D35933;" d="M276.63,303.125l12.986-12.986h-26.145v107.549c0.383,0.003,0.764,0.012,1.148,0.012
	c25.938,0,46.963-8.654,46.963-34.592C311.582,341.323,296.748,311.968,276.63,303.125z"/>
<path style="fill:#B54324;" d="M280.526,304.531h-31.815c-1.255,0-2.272-1.017-2.272-2.272s1.017-2.272,2.272-2.272h31.815
	c1.255,0,2.272,1.017,2.272,2.272C282.798,303.513,281.781,304.531,280.526,304.531z"/>
<path style="fill:#930000;" d="M280.526,299.985H263.47v4.544h17.056c1.255,0,2.272-1.017,2.272-2.272
	C282.798,301.004,281.781,299.985,280.526,299.985z"/>
<path style="fill:#FFEDB5;" d="M373.281,328.816c-2.708-3.763-7.63-5.244-11.969-3.615c-0.062,0.024-0.124,0.047-0.188,0.067
	l-73.463,24.457c0.016,0.59,0.003,1.184-0.034,1.783c-0.614,9.382-7.868,16.917-17.191,17.863l-44.273,4.598
	c-2.801,0.293-5.304-1.743-5.596-4.543c-0.293-2.801,1.743-5.37,4.542-5.596l44.273-4.598c4.37-0.476,7.783-3.984,8.071-8.389
	c0.157-2.405-0.633-4.727-2.222-6.537c-1.589-1.812-3.791-2.896-6.196-3.053l-58.782-3.832c-6.603-0.428-13.155,1.029-18.953,4.22
	l-77.524,42.691l20.995,42.334l19.473-16.989c8.271-7.215,19.227-10.323,30.058-8.523l65.093,10.818
	c11.928,1.586,23.886-1.389,33.68-8.376l88.626-61.037C375.663,339.099,376.367,333.103,373.281,328.816z"/>
<g>
	<path style="fill:#FEE187;" d="M269.383,359.233c4.37-0.476,7.783-3.984,8.071-8.389c0.157-2.405-0.633-4.727-2.222-6.537
		c-1.589-1.812-3.791-2.896-6.196-3.053l-5.566-0.364v18.956L269.383,359.233z"/>
	<path style="fill:#FEE187;" d="M373.281,328.816c-2.708-3.763-7.63-5.244-11.969-3.613c-0.062,0.024-0.124,0.045-0.186,0.067
		l-73.463,24.457c0.016,0.59,0.003,1.184-0.034,1.783c-0.614,9.382-7.868,16.917-17.191,17.863l-6.965,0.724v41.634
		c7.001-1.176,13.698-3.918,19.604-8.132l88.626-61.037C375.663,339.099,376.367,333.103,373.281,328.816z"/>
</g>
<g>
</g>
<g>
</g>
<g>
</g>
<g>
</g>
<g>
</g>
<g>
</g>
<g>
</g>
<g>
</g>
<g>
</g>
<g>
</g>
<g>
</g>
<g>
</g>
<g>
</g>
<g>
</g>
<g>
</g>
</svg>
