<svg id="Capa_1" enable-background="new 0 0 512 512" height="512" viewBox="0 0 512 512" width="512" xmlns="http://www.w3.org/2000/svg" xmlns:xlink="http://www.w3.org/1999/xlink"><linearGradient id="SVGID_1_" gradientUnits="userSpaceOnUse" x1="256" x2="256" y1="512" y2="0"><stop offset="0" stop-color="#00b59c"/><stop offset="1" stop-color="#9cffac"/></linearGradient><g><g><g><path d="m507.59 278.535c-29.238-29.238-76.816-29.238-106.055 0l-67.412 67.412c-52.427-.103-104.228-6.299-120.473-14.209 11.895-5.698 40.532-11.367 58.77-14.985 48.94-9.697 87.598-17.358 87.598-44.751 0-12.598-14.019-21.987-25.781-27.642-28.74-13.799-137.358-47.036-328.594 105.923-5.317 4.263-7.104 11.587-4.336 17.813l60 135c1.89 4.233 5.61 7.354 10.093 8.467 4.674 1.14 9.371-.003 12.891-2.769 101.118-79.497 211.088-74.619 246.815-73.169 3.955.176 7.061.308 9.243.308 20.024 0 38.862-7.808 53.027-21.973l114.214-114.214c2.813-2.813 4.395-6.636 4.395-10.605 0-3.985-1.582-7.794-4.395-10.606zm-135.424 114.214c-8.379 8.379-19.98 13.184-31.816 13.184-1.875 0-4.541-.117-7.925-.278-36.753-1.611-146.078-6.357-251.327 68.101l-47.637-107.199c166.552-129.844 263.569-110.127 291.284-93.838-12.803 5.61-40.356 11.074-58.154 14.604-48.369 9.58-86.572 17.153-86.572 44.136 0 4.79 1.406 11.895 8.145 18.574 23.745 23.569 113.046 25.913 147.104 25.913 6.724-.044 11.792-.542 15.688-4.409l71.792-71.792c13.843-13.813 34.482-16.714 51.211-8.789zm-185.995-251.828c14.165 14.165 32.988 21.958 53.027 21.958 15.042 0 29.407-4.395 41.627-12.578 16.481 17.25 29.872 33.593 36.156 49.975.039.103.15.139.19.24 1.565 3.869 5.859 7.417 8.452 8.403 1.772.674 3.574.996 5.361.996s3.604-.322 5.361-.996c2.614-1.001 6.888-4.543 8.456-8.406.04-.099.148-.137.187-.236 6.367-16.641 19.704-32.946 36.084-50.063 12.237 8.214 26.624 12.636 41.699 12.636 20.039 0 38.862-7.793 53.027-21.958 9.419-9.419 23.276-32.534 34.731-124.043.571-4.585-.996-9.185-4.277-12.466-3.267-3.267-7.969-4.819-12.451-4.277-90.423 11.235-113.802 24.463-124.071 34.731-25.503 25.503-28.729 64.948-9.743 94.016-11.14 11.59-21.117 23.064-29.057 34.854-7.921-11.68-17.867-23.133-28.998-34.733 19.041-29.079 15.824-68.593-9.692-94.122-9.419-9.419-32.534-23.276-124.058-34.731-4.512-.454-9.199 1.011-12.466 4.277s-4.849 7.866-4.277 12.451c11.235 90.425 24.463 113.804 34.732 124.072zm204.77-84.873c4.072-4.072 20.61-14.019 87.217-23.599-9.946 68.716-20.405 84.067-23.569 87.231-13.4 13.4-34.464 15.818-51.196 8.084 17.81-17.254 24.591-23.915 29.971-29.295 5.859-5.859 5.859-15.352 0-21.211s-15.352-5.859-21.211 0c-6.791 6.792-26.914 26.334-29.939 29.266-7.63-16.616-4.944-36.805 8.727-50.476zm-119.912.015c13.672 13.684 16.34 33.906 8.692 50.535-3-2.918-23.617-23.024-29.903-29.31-5.859-5.859-15.352-5.859-21.211 0s-5.859 15.352 0 21.211c6.107 6.107 12.241 12.11 29.93 29.319-16.723 7.71-37.767 5.281-51.156-8.108-4.072-4.072-14.019-20.61-23.599-87.217 68.717 9.947 84.083 20.406 87.247 23.57z" fill="url(#SVGID_1_)"/></g></g></g></svg>