<?xml version="1.0" encoding="iso-8859-1"?>
<!-- Generator: Adobe Illustrator 19.0.0, SVG Export Plug-In . SVG Version: 6.00 Build 0)  -->
<svg version="1.1" id="Layer_1" xmlns="http://www.w3.org/2000/svg" xmlns:xlink="http://www.w3.org/1999/xlink" x="0px" y="0px"
	 viewBox="0 0 315.539 315.539" style="enable-background:new 0 0 315.539 315.539;" xml:space="preserve">
<g>
	<g>
		<circle style="fill:#FFDB77;" cx="38.877" cy="77.76" r="31.377"/>
		<path style="fill:#414042;" d="M38.877,116.638C17.44,116.638,0,99.197,0,77.761s17.44-38.877,38.877-38.877
			s38.877,17.44,38.877,38.877S60.314,116.638,38.877,116.638z M38.877,53.884C25.711,53.884,15,64.595,15,77.761
			s10.711,23.877,23.877,23.877s23.877-10.711,23.877-23.877S52.043,53.884,38.877,53.884z"/>
	</g>
	<g>
		<path style="fill:#FFDB77;" d="M38.877,139.15L38.877,139.15c-15.963,0-28.904,12.941-28.904,28.904v101.102h57.808V168.053
			C67.781,152.09,54.84,139.15,38.877,139.15z"/>
		<path style="fill:#414042;" d="M67.781,276.655H9.973c-4.142,0-7.5-3.357-7.5-7.5V168.054c0-20.073,16.331-36.404,36.404-36.404
			s36.404,16.331,36.404,36.404v101.101C75.281,273.298,71.923,276.655,67.781,276.655z M17.473,261.655h42.808v-93.601
			c0-11.803-9.601-21.404-21.404-21.404c-11.802,0-21.404,9.602-21.404,21.404V261.655z"/>
	</g>
	<g>
		<circle style="fill:#FFDB77;" cx="157.77" cy="77.76" r="31.377"/>
		<path style="fill:#414042;" d="M157.77,116.638c-21.437,0-38.877-17.44-38.877-38.877s17.44-38.877,38.877-38.877
			s38.877,17.44,38.877,38.877S179.207,116.638,157.77,116.638z M157.77,53.884c-13.166,0-23.877,10.711-23.877,23.877
			s10.711,23.877,23.877,23.877s23.877-10.711,23.877-23.877S170.936,53.884,157.77,53.884z"/>
	</g>
	<g>
		<path style="fill:#FFDB77;" d="M157.77,139.15L157.77,139.15c-15.963,0-28.904,12.941-28.904,28.904v101.102h57.808V168.053
			C186.673,152.09,173.733,139.15,157.77,139.15z"/>
		<path style="fill:#414042;" d="M186.673,276.655h-57.808c-4.142,0-7.5-3.357-7.5-7.5V168.054
			c0-20.073,16.331-36.404,36.404-36.404s36.404,16.331,36.404,36.404v101.101C194.173,273.298,190.815,276.655,186.673,276.655z
			 M136.366,261.655h42.808v-93.601c0-11.803-9.602-21.404-21.404-21.404s-21.404,9.602-21.404,21.404V261.655z"/>
	</g>
	<g>
		<circle style="fill:#FFDB77;" cx="276.662" cy="77.76" r="31.377"/>
		<path style="fill:#414042;" d="M276.662,116.638c-21.437,0-38.877-17.44-38.877-38.877s17.44-38.877,38.877-38.877
			s38.877,17.44,38.877,38.877S298.099,116.638,276.662,116.638z M276.662,53.884c-13.166,0-23.877,10.711-23.877,23.877
			s10.711,23.877,23.877,23.877c13.166,0,23.877-10.711,23.877-23.877S289.828,53.884,276.662,53.884z"/>
	</g>
	<g>
		<path style="fill:#FFDB77;" d="M276.662,139.15L276.662,139.15c-15.963,0-28.904,12.941-28.904,28.904v101.102h57.808V168.053
			C305.566,152.09,292.625,139.15,276.662,139.15z"/>
		<path style="fill:#414042;" d="M305.566,276.655h-57.808c-4.142,0-7.5-3.357-7.5-7.5V168.054
			c0-20.073,16.331-36.404,36.404-36.404s36.404,16.331,36.404,36.404v101.101C313.066,273.298,309.708,276.655,305.566,276.655z
			 M255.258,261.655h42.808v-93.601c0-11.803-9.602-21.404-21.404-21.404s-21.404,9.602-21.404,21.404V261.655z"/>
	</g>
</g>
<g>
</g>
<g>
</g>
<g>
</g>
<g>
</g>
<g>
</g>
<g>
</g>
<g>
</g>
<g>
</g>
<g>
</g>
<g>
</g>
<g>
</g>
<g>
</g>
<g>
</g>
<g>
</g>
<g>
</g>
</svg>
